<!-- Generated by IcoMoon.io -->
<svg version="1.1" xmlns="http://www.w3.org/2000/svg" width="1024" height="1024" viewBox="0 0 1024 1024">
<title></title>
<g id="icomoon-ignore">
</g>
<path d="M448.446 914.058c-202.045 0-388.675-109.598-443.755-260.597-8.146-22.67-5.535-45.027 6.785-62.523 17.558-25.015 52.657-32.739 80.127-16.776 83.082 48.295 186.723 75.984 284.361 75.984 57.269 0 111.943-9.334 162.474-27.783 165.038-60.193 270.618-212.458 310.877-324.557 8.912-24.796 31.066-40.822 56.441-40.822 26.891 0 50.703 17.433 60.678 44.386 34.646 94.98 19.027 216.992-41.353 327.528-64.367 117.791-168.071 207.564-292.053 252.779-58.895 21.482-120.996 32.379-184.581 32.379zM60.005 612.28c-3.956 0-7.661 2.064-10.162 5.628-2.001 2.83-4.847 9.021-1.423 18.527 48.107 131.94 219.947 230.719 400.025 230.719 58.098 0 114.789-9.944 168.509-29.534 113.257-41.322 208.080-123.435 266.96-231.219 54.017-98.857 68.557-206.454 38.883-287.816-4.096-11.069-11.429-14.696-17.042-14.696-4.002 0-9.396 1.704-12.289 9.756-45.794 127.484-158.878 287.113-338.957 352.793-55.706 20.309-115.774 30.612-178.546 30.612-105.658 0-217.914-30.003-307.938-82.332-2.767-1.61-5.472-2.439-8.021-2.439z"></path>
<path d="M961.431 405.341c-11.585 0-21.669-8.583-23.233-20.387-8.974-68.151-19.746-175.060-9.193-235.925h-86.334c21.638 56.394 56.316 167.29 21.326 226.075-6.598 11.132-20.997 14.79-32.129 8.177-11.147-6.629-14.806-21.013-8.177-32.145 24.906-41.854-9.772-154.626-37.476-215.882-3.283-7.27-2.658-15.697 1.673-22.389 4.315-6.692 11.742-10.741 19.7-10.741h153.875c9.365 0 17.839 5.582 21.544 14.196 3.69 8.599 1.923 18.589-4.534 25.39-12.289 18.527-6.848 137.74 6.238 237.129 1.689 12.836-7.348 24.609-20.184 26.313-1.048 0.141-2.079 0.188-3.096 0.188z"></path>
<path d="M474.587 825.519c-78.22 0-131.549-24.875-135.333-26.688-11.663-5.613-16.588-19.621-10.975-31.3 5.597-11.648 19.59-16.557 31.222-11.007 5.769 2.72 140.82 64.586 294.821-31.16 11.007-6.832 25.469-3.455 32.301 7.536 6.848 11.007 3.471 25.469-7.536 32.301-75.108 46.685-146.621 60.318-204.5 60.318z"></path>
</svg>
